# xmcd CD database file
#
# Track frame offsets:
#	150
#	13341
#	31874
#	47208
#	69800
#	84231
#	97500
#	114848
#	130297
#	150697
#	166425
#	184745
#	198621
#	210039
#	224019
#	242738
#	251003
#	260795
#	273931
#	286667
#	306684
#	314673
#
# Disc length: 4307 seconds
#
# Revision: 0
# Processed by: cddbd v1.4PL0 Copyright (c) Steve Scherf et al.
# Submitted via: Feurio! 1.65 - http://www.feurio.com
#
DISCID=3910d116
DTITLE=Hazel Dickens and Rose Maddox - By The Sweat Of My Brow and Queen Of The 
DTITLE=West
DYEAR=1900
DGENRE=Country
TTITLE0=Hazel Dickens - Beyond The River Bend
TTITLE1=Hazel Dickens - Only The Lonely
TTITLE2=Hazel Dickens - By The Sweat Of My Brow
TTITLE3=Hazel Dickens - Scars From An Old Love
TTITLE4=Hazel Dickens - Old And In The Way
TTITLE5=Hazel Dickens - Are They Gonna Make Us Outlaws Again
TTITLE6=Hazel Dickens - The Ballad Of Ira Hayes
TTITLE7=Hazel Dickens - Go Away With Me
TTITLE8=Hazel Dickens - Mamas Hand
TTITLE9=Hazel Dickens - Your Greedy Heart
TTITLE10=Hazel Dickens - Little Lenaldo
TTITLE11=Hazel Dickens - Here Today And Gone Tomorrow
TTITLE12=Rose Maddox - Down Down Down
TTITLE13=Rose Maddox - Downtown Modesto
TTITLE14=Rose Maddox - Cold In California
TTITLE15=Rose Maddox - Oklahoma Sweetheart
TTITLE16=Rose Maddox - Alone With You
TTITLE17=Rose Maddox - Foggy River
TTITLE18=Rose Maddox - Mister Jackson
TTITLE19=Rose Maddox - Shellys Winter Love
TTITLE20=Rose Maddox - Somebodys Looking For Gold
TTITLE21=Rose Maddox - My Love Is Too Hot For You
EXTD=
EXTT0=
EXTT1=
EXTT2=
EXTT3=
EXTT4=
EXTT5=
EXTT6=
EXTT7=
EXTT8=
EXTT9=
EXTT10=
EXTT11=
EXTT12=
EXTT13=
EXTT14=
EXTT15=
EXTT16=
EXTT17=
EXTT18=
EXTT19=
EXTT20=
EXTT21=
PLAYORDER=
